<?xml version="1.0" standalone="no"?><!DOCTYPE svg PUBLIC "-//W3C//DTD SVG 1.1//EN" "http://www.w3.org/Graphics/SVG/1.1/DTD/svg11.dtd"><svg t="1662645296285" class="icon" viewBox="0 0 1024 1024" version="1.1" xmlns="http://www.w3.org/2000/svg" p-id="14078" xmlns:xlink="http://www.w3.org/1999/xlink" width="200" height="200"><path d="M706.964 149.743c0.765 6.88-3.75 12.603-7.152 18.65-7.029 12.5-14.335 24.845-21.43 37.31-5.611 9.86-15.796 15.503-25.207 13.767-11.277-2.080-19.132-10.202-20.818-21.998-0.569-3.971 0.258-8.013 2.247-11.542 9.463-16.803 18.817-33.673 28.673-50.243 5.225-8.783 17.167-12.644 26.867-9.683 10.278 3.136 16.828 12.093 16.821 23.739z" p-id="14079"></path><path d="M729.911 276.329c0.030-17.363 12.768-29.405 30.315-30.020 16.236-0.57 30.703 15.052 30.274 30.439-0.469 16.813-13.69 30.251-30.596 30.206-16.731-0.044-30.023-13.616-29.993-30.625z" p-id="14080"></path><path d="M933.035 559.389c-17.077-17.497-34.366-34.787-51.57-52.154-98.667-99.608-198.546-198.009-296.858-297.973-17.263-17.554-34.781-34.86-52.193-52.267-12.39-12.386-26.247-12.43-38.58 0.060-22.905 23.201-45.922 46.293-68.89 69.429-109.924 110.735-220.803 220.519-330.397 331.586-0.898 0.91-1.849 1.778-2.673 2.752-3.888 4.599-5.862 10.152-5.411 15.938 1.104 14.167 10.972 22.82 25.19 22.822 36.933 0.005 73.866 0.071 110.798-0.124 4.562-0.024 5.895 1.079 5.877 5.767-0.179 46.045-0.109 92.092-0.109 138.138 0 45.247 0.243 90.495-0.132 135.739-0.13 15.72 11.017 26.633 26.535 26.617 173.31-0.194 346.622-0.193 519.933-0.001 15.492 0.018 26.567-10.881 26.522-26.625-0.265-91.132-0.13-182.265-0.129-273.398 0-6.104 0.005-6.108 6.288-6.108 36.293-0.002 72.586 0.063 108.879-0.042 10.763-0.032 17.913-5.72 22.056-15.427 3.406-7.979 1.282-18.157-5.135-24.731zM852.068 551.625c-24.301 0-48.607 0.233-72.904-0.087-14.869-0.195-26.369 10.878-26.321 26.4 0.285 91.13 0.14 182.261 0.14 273.392 0 6.299-0.004 6.305-6.083 6.305-154.922 0.001-309.844-0.024-464.766 0.113-4.869 0.005-6.074-1.21-6.065-6.069 0.155-91.29 0.116-182.58 0.113-273.871 0-16.413-9.782-26.201-26.176-26.203-25.261-0.004-50.521 0.004-75.783 0.008-1.536 0-3.072 0-4.841 0 0.638-2.464 2.396-3.449 3.686-4.74 65.858-65.958 132.047-131.592 197.525-197.926 46.046-46.649 92.65-92.737 138.654-139.423 3.115-3.161 4.723-3.084 7.811 0.023 40.914 41.159 82.256 81.897 122.93 123.293 70.808 72.069 142.752 143.002 213.924 214.706 1.073 1.082 2.051 2.261 3.692 4.082-2.465-0.001-4-0.001-5.536-0.001z" p-id="14081"></path><path d="M537.127 573.917c0.001 8.95 0.155 17.905-0.075 26.85-0.092 3.54 0.902 4.674 4.548 4.637 17.421-0.18 34.843-0.1 52.266-0.072 14.063 0.023 24.741 10.28 24.803 23.754 0.063 13.791-10.569 24.173-24.84 24.198-17.261 0.027-34.526 0.137-51.785-0.088-4.109-0.053-5.042 1.287-4.999 5.168 0.194 17.26 0.108 34.524 0.075 51.786-0.026 13.985-10.377 24.652-23.873 24.683-13.519 0.030-24.045-10.633-24.075-24.48-0.037-17.423-0.108-34.846 0.069-52.266 0.038-3.717-0.921-4.93-4.793-4.885-17.419 0.205-34.842 0.116-52.265 0.080-13.885-0.029-24.568-10.501-24.563-23.993 0.006-13.491 10.688-23.926 24.601-23.956 17.262-0.035 34.527-0.167 51.785 0.099 4.377 0.068 5.302-1.315 5.251-5.422-0.219-17.259-0.123-34.523-0.083-51.786 0.031-13.829 10.582-24.484 24.112-24.443 13.267 0.040 23.767 10.694 23.835 24.241 0.043 8.631 0.008 17.261 0.009 25.893z" p-id="14082"></path></svg>