<?xml version="1.0" standalone="no"?><!DOCTYPE svg PUBLIC "-//W3C//DTD SVG 1.1//EN" "http://www.w3.org/Graphics/SVG/1.1/DTD/svg11.dtd"><svg t="1664357339021" class="icon" viewBox="0 0 1024 1024" version="1.1" xmlns="http://www.w3.org/2000/svg" p-id="1763" xmlns:xlink="http://www.w3.org/1999/xlink" width="200" height="200"><path d="M831.961754 522.233062 192.037223 522.233062c-5.65172 0-10.233062-4.582365-10.233062-10.233062 0-5.65172 4.581342-10.233062 10.233062-10.233062l639.924531 0c5.65172 0 10.233062 4.581342 10.233062 10.233062C842.194816 517.65172 837.613474 522.233062 831.961754 522.233062z" p-id="1764"></path><path d="M522.23255 192.037734l0 639.924531c0 5.65172-4.582365 10.233062-10.233062 10.233062-5.65172 0-10.233062-4.581342-10.233062-10.233062l0-639.924531c0-5.65172 4.581342-10.233062 10.233062-10.233062C517.650185 181.804672 522.23255 186.386014 522.23255 192.037734z" p-id="1765"></path></svg>